<svg xmlns="http://www.w3.org/2000/svg" width="85.855" height="28.313" viewBox="0 0 85.855 28.313">
  <g id="Grupo_325" data-name="Grupo 325" transform="translate(21 -357.687)">
    <g id="Grupo_324" data-name="Grupo 324" transform="translate(-21 357.687)">
      <path id="Trazado_477" data-name="Trazado 477" d="M1.2-32.828H4.707v10.654H7.932V-32.828h3.507v-2.583H1.2ZM13.061-22.174h3.225V-35.411H13.061Zm5.563,0h3.225v-7.958l2.979,7.958h2.6l2.961-7.939v7.939h3.225V-35.411h-3.79l-3.677,9.164-3.715-9.164H18.624ZM48.964-28.83a6.6,6.6,0,0,0-6.77-6.77,6.644,6.644,0,0,0-6.807,6.77,6.66,6.66,0,0,0,6.807,6.788A6.629,6.629,0,0,0,48.964-28.83Zm-10.277,0c0-2.357,1.358-3.847,3.507-3.847,2.112,0,3.488,1.49,3.488,3.847,0,2.319-1.377,3.847-3.488,3.847C40.045-24.984,38.687-26.511,38.687-28.83Zm15.481,5.072a1.782,1.782,0,0,0-1.9-1.773,1.787,1.787,0,0,0-1.923,1.773,1.781,1.781,0,0,0,1.923,1.735A1.775,1.775,0,0,0,54.169-23.758Z" transform="translate(31.686 43.035)" fill="#adbae4"/>
      <g id="Grupo_28" data-name="Grupo 28" transform="translate(17.325 20.253)">
        <path id="Trazado_14" data-name="Trazado 14" d="M314.716,366.473a.83.83,0,1,0,.243.587A.836.836,0,0,0,314.716,366.473Z" transform="translate(-313.3 -366.23)" fill="#5c77f8"/>
      </g>
      <g id="Grupo_32" data-name="Grupo 32" transform="translate(21.323 13.327)">
        <path id="Trazado_16" data-name="Trazado 16" d="M387.016,241.243a.83.83,0,1,0,.243.587A.836.836,0,0,0,387.016,241.243Z" transform="translate(-385.6 -241)" fill="#5c77f8"/>
      </g>
      <g id="Grupo_36" data-name="Grupo 36" transform="translate(17.325 6.402)">
        <path id="Trazado_18" data-name="Trazado 18" d="M314.716,116.013a.83.83,0,1,0,.243.586A.835.835,0,0,0,314.716,116.013Z" transform="translate(-313.3 -115.77)" fill="#5c77f8"/>
      </g>
      <g id="Grupo_26" data-name="Grupo 26">
        <path id="Trazado_13" data-name="Trazado 13" d="M24.167,4.146A14.157,14.157,0,0,0,4.146,24.167,14.157,14.157,0,0,0,24.167,4.146ZM9.928,2.4A11.573,11.573,0,0,0,8.7,4.362a21.9,21.9,0,0,0-2.027,8.965H1.687A12.525,12.525,0,0,1,9.928,2.4ZM1.687,14.986H6.676A21.9,21.9,0,0,0,8.7,23.951a11.572,11.572,0,0,0,1.225,1.966A12.525,12.525,0,0,1,1.687,14.986Zm11.64,11.529a6.173,6.173,0,0,1-3.14-3.306,20.185,20.185,0,0,1-1.851-8.223h4.991Zm0-13.188H8.336A20.187,20.187,0,0,1,10.187,5.1,6.173,6.173,0,0,1,13.327,1.8Zm1.659,13.3c.308-2.252.2-12.572.2-12.572S15.349,4,14.986,1.687a12.5,12.5,0,0,1,0,24.939Z" transform="translate(0 0)" fill="#adbae4"/>
      </g>
    </g>
  </g>
</svg>
