<?xml version="1.0" encoding="iso-8859-1"?>
<!-- Generator: Adobe Illustrator 18.1.1, SVG Export Plug-In . SVG Version: 6.00 Build 0)  -->
<svg version="1.1" id="Capa_1" xmlns="http://www.w3.org/2000/svg" xmlns:xlink="http://www.w3.org/1999/xlink" x="0px" y="0px"
	 viewBox="0 0 23.051 23.051" style="enable-background:new 0 0 23.051 23.051;" xml:space="preserve">
<g>
	<g>
		<path d="M11.523,0C6.068,0,1.645,4.423,1.645,9.882c0,5.078,3.831,9.257,8.765,9.812c0.431,0.49,1.428,1.785,1.383,3.357
			c0.27-1.557,0.867-3.157,1.511-3.448c0.008-0.004,0.008-0.008,0.012-0.012c4.603-0.843,8.09-4.866,8.09-9.709
			C21.405,4.423,16.981,0,11.523,0z M11.463,19.302c-5.204,0-9.424-4.218-9.424-9.42c0-2.582,1.042-4.918,2.721-6.621L4.704,3.524
			v0.26C4.7,3.779,4.651,3.797,4.055,4.456C3.376,5.207,3.512,5.321,3.512,5.321l0.045,0.366l0.188,0.157l0.104,0.283l0.154,0.5
			V7.15l0.098,0.241c0,0,0.207,0.177,0.616,0.271c0.408,0.094,0.344,0.021,0.326,0.094c-0.022,0.073,0.042,0.25,0.333,0.325
			c0.289,0.073,0.248,0.292,0.248,0.292s0.326,0.333,0.438,0.47c0.117,0.136,0.251-0.292,0.221-0.271
			c-0.031,0.02-0.398-0.063-0.398-0.167c0-0.105,0.314-0.608,0.03-0.585c-0.282,0.02-0.417,0.073-0.33-0.231
			C5.663,7.285,5.322,7.391,5.27,7.422C4.82,7.568,4.936,7.264,4.936,7.118c-0.033-0.92,0.627-1.003,0.627-1.003
			S5.96,6.127,6.252,6.074c0.292-0.053,0.25,0.292,0.221,0.345C6.597,6.847,6.68,6.46,6.68,6.46l0.06-0.282
			c0,0,0.045-0.261,0.057-0.334c0.502-0.189,0.772-0.625,0.772-0.625c0.782-0.995,2.016-0.775,2.016-0.775L9.96,4.476
			C9.597,4.894,10.2,4.663,10.2,4.663l0.168-0.084c0,0,0.21-0.074,0.397-0.145c0.188-0.073,0.117-0.242,0-0.367
			S10.702,3.88,10.702,3.88s-0.019-0.178-0.041-0.293c-0.022-0.114-0.169-0.072-0.169-0.072l-0.067-0.106V3.242
			c0,0-0.121,0.01-0.424-0.084c-0.3-0.094,0.356-0.573,0.356-0.573h0.24h0.116c0,0,0.06-0.011,0.06-0.167
			c0-0.157-0.037-0.022,0.169-0.219c0.209-0.199,0-0.283,0-0.283l-0.176-0.147c0,0-0.18-0.062-0.304-0.23
			c-0.124-0.167-0.27-0.188-0.27-0.188s-0.139-0.135-0.303,0c-0.17,0.135,0,0.188,0,0.188L9.626,1.717c0,0-0.209,0.167-0.333,0.179
			c0,0-0.063,0.616-0.387-0.021c-0.325-0.64-0.585-0.263-0.585-0.263S8.27,1.801,8.224,2.009c-0.037,0.21-0.142,0.313-0.229,0.137
			C7.913,1.968,7.831,2.041,7.831,2.041L7.538,2.074L7.077,1.916C6.732,2.271,6.083,2.585,6.083,2.585S5.708,2.783,5.585,2.783
			c-0.128,0-0.034,0.135-0.034,0.135L5.225,2.831c1.665-1.472,3.842-2.372,6.238-2.372c2.462,0,4.698,0.952,6.377,2.5h-0.555
			L16.7,2.824l-0.385,0.135l-0.2-0.134h-0.439h-0.314c0,0-0.596-0.731-0.941,0c-0.292,0.229-0.679,0.333-0.679,0.333h-0.228
			l-0.293-0.073l-0.499-0.114l-0.401,0.187c-0.282,0.512-0.364,0.868-0.364,0.868l-0.18,0.5l-0.198,0.553l-0.123,0.493
			c0,0-0.146,0.649,0.431-0.105c0.195-0.178,0.528-0.272,0.528-0.272s0.409,0.023,0.573,0.377c0.169,0.356,0.274,0.334,0.274,0.334
			l-0.063-0.24l0.063-0.176l0.124,0.039v0.137l0.057,0.146c0,0,0.124,0.157,0.269,0.094c0.165,0.042,0.491-0.21,0.427,0.392
			c-0.344,0.371-0.479,0.508-0.479,0.508l-0.128-0.115l-0.209-0.073l-0.154-0.075L13.14,6.168l-0.211-0.042L12.467,6.19
			c0,0-1.022,0.02-0.689,1.586c0.584,1.453,0.584,1.453,0.584,1.453l0.105,0.45l0.105,0.312c0,0,0.128,0.439,0.671,0.188
			c0.435,0.292,0.435,0.292,0.435,0.292s0.024,0.21,0.012,0.419c-0.012,0.208,0.187,0.459,0.187,0.459l0.045,0.896
			c0,0-0.158,0.379,0.094,1.131c0.093,0.804,0.131,0.897,0.131,0.897s0.391,0.596,0.806-0.114c0.421-0.71,0.515-1.097,0.515-1.097
			s-0.116-0.189,0.325-0.45c0.053-0.45,0.072-0.816,0.072-0.816s-0.176-0.312,0.367-0.877c0.143,0.021,0.247,0.094,0.247,0.094
			s0.211,0.125,0.286-0.219c-0.18-0.199-0.222-0.251,0-0.512c0.029-0.261,0.176-0.377-0.356-0.847
			c0.356-0.27,0.585-0.459,0.585-0.459l0.083-0.219c0,0,0.221-0.157-0.218-0.354c-0.397-0.284-1.057-0.91-1.057-0.91l-0.3-0.304
			c0,0-0.391-0.313,0.153-0.199c0.117,0.117,0.229,0.135,0.229,0.135l0.168-0.009c0,0,0.251-0.19,0.555,0.198
			c0.304,0.387,0.667,0.773,0.667,0.773l0.42,0.355l0.304,0.115l0.154,0.376l0.175,0.397l0.222,0.45c0,0,0.199,0.229,0.209-0.209
			c0.012-0.439,0.159-0.705,0.159-0.705l0.123-0.205c0,0,0.094-0.511,0.461,0.011c0.364,0.522,0.503,0.554,0.503,0.554v0.187
			L20.115,9.7l0.139,0.011V9.533l0.239,0.156l0.124,0.193l0.179-0.109V9.344l-0.209-0.366c0,0-0.368-0.322,0.082-0.366
			c0.034-0.09,0.056-0.198,0.071-0.309c0.086,0.516,0.143,1.039,0.143,1.579C20.884,15.084,16.666,19.302,11.463,19.302z"/>
		<path d="M10.053,10.065L9.701,9.96L9.187,9.731L9.06,9.428L9.012,9.281L8.936,9.136H8.865L8.768,8.99H8.351V8.87l-0.18-0.214
			L7.924,8.428H7.58c0,0-0.221,0.152-0.439-0.14C6.919,7.996,6.617,8.551,6.617,8.551l-0.23,0.105
			c0.124,0.261-0.018,0.667-0.082,0.772c-0.391,0.73-0.263,0.941-0.263,0.941l0.135,0.261c0,0,0.24,0.345,0.285,0.397
			c0.154,0.638,0.333,0.626,0.333,0.626l0.356,0.263c0,0,0.342,0.438,0.352,0.552C7.515,14.286,8.291,15.5,8.291,15.5l0.634,0.71
			l0.397,0.083l0.146-0.147l-0.333-0.188L8.989,15.76l-0.012-0.292l-0.166-0.282L8.79,14.862l0.082-0.336l0.337-0.125v-0.188
			l0.093-0.178L9.439,13.9v-0.146l-0.011-0.146l0.135-0.147l0.012-0.23l0.022-0.271l0.217-0.261h0.199l0.179-0.167l0.072-0.189
			l0.034-0.333l-0.023-0.543l0.165-0.22l0.168-0.283l0.041-0.239l-0.052-0.302L10.053,10.065z"/>
		<path d="M19.185,13.512c-0.019-0.188,0.053-0.322-0.228-0.427c0,0-0.619-0.158-0.784,0.084c-0.146,0.091-0.292,0.103-0.292,0.103
			l-0.106,0.094l-0.198,0.189l-0.355,0.398c0,0-0.356,0.302-0.293,0.689c0.064,0.386,0.222,0.667-0.142,0.679
			c-0.309,0.219-0.402,0.366-0.402,0.366s-0.269,0.491,0.297,0.251c0.499-0.313,0.664-0.669,0.956-0.292
			c0.109,0.188,0.214,0.584,0.689,0.082c0.484-0.5,0.941-0.971,0.941-0.971s0.18-0.251-0.09-0.564
			C19.096,14.026,18.945,13.942,19.185,13.512z"/>
	</g>
	<g>
	</g>
	<g>
	</g>
	<g>
	</g>
	<g>
	</g>
	<g>
	</g>
	<g>
	</g>
	<g>
	</g>
	<g>
	</g>
	<g>
	</g>
	<g>
	</g>
	<g>
	</g>
	<g>
	</g>
	<g>
	</g>
	<g>
	</g>
	<g>
	</g>
</g>
<g>
</g>
<g>
</g>
<g>
</g>
<g>
</g>
<g>
</g>
<g>
</g>
<g>
</g>
<g>
</g>
<g>
</g>
<g>
</g>
<g>
</g>
<g>
</g>
<g>
</g>
<g>
</g>
<g>
</g>
</svg>
