<svg id="Grupo_389" data-name="Grupo 389" xmlns="http://www.w3.org/2000/svg" width="341.082" height="246.289" viewBox="0 0 341.082 246.289">
  <g id="Grupo_253" data-name="Grupo 253" transform="translate(232.837 47.569)">
    <ellipse id="Elipse_1" data-name="Elipse 1" cx="3.433" cy="3.433" rx="3.433" ry="3.433" transform="matrix(0.022, -1, 1, 0.022, 51.274, 6.863)" fill="#ced4ea"/>
    <ellipse id="Elipse_2" data-name="Elipse 2" cx="3.433" cy="3.433" rx="3.433" ry="3.433" transform="matrix(0.022, -1, 1, 0.022, 51.274, 115.763)" fill="#ced4ea"/>
    <ellipse id="Elipse_3" data-name="Elipse 3" cx="3.432" cy="3.432" rx="3.432" ry="3.432" transform="translate(78.831 17.915) rotate(-88.494)" fill="#ced4ea"/>
    <path id="Trazado_352" data-name="Trazado 352" d="M2383.963,374.6a3.432,3.432,0,1,1,3.432,3.433A3.432,3.432,0,0,1,2383.963,374.6Z" transform="translate(-2363.147 -360.021)" fill="#ced4ea"/>
    <path id="Trazado_353" data-name="Trazado 353" d="M2624.287,762.042a3.432,3.432,0,1,1,3.433,3.432A3.433,3.433,0,0,1,2624.287,762.042Z" transform="translate(-2547.046 -656.5)" fill="#ced4ea"/>
    <path id="Trazado_354" data-name="Trazado 354" d="M2403.563,762.042a3.432,3.432,0,1,1,3.432,3.432A3.432,3.432,0,0,1,2403.563,762.042Z" transform="translate(-2378.145 -656.5)" fill="#ced4ea"/>
    <path id="Trazado_355" data-name="Trazado 355" d="M2712.479,459.106a3.432,3.432,0,1,1,3.433,3.433A3.432,3.432,0,0,1,2712.479,459.106Z" transform="translate(-2614.532 -424.69)" fill="#ced4ea"/>
    <path id="Trazado_356" data-name="Trazado 356" d="M2727.1,565.356a3.432,3.432,0,1,1,3.432,3.432A3.432,3.432,0,0,1,2727.1,565.356Z" transform="translate(-2625.719 -505.994)" fill="#ced4ea"/>
    <path id="Trazado_357" data-name="Trazado 357" d="M2295.3,565.356a3.432,3.432,0,1,1,3.433,3.432A3.433,3.433,0,0,1,2295.3,565.356Z" transform="translate(-2295.303 -505.994)" fill="#ced4ea"/>
    <path id="Trazado_358" data-name="Trazado 358" d="M2319.405,459.106a3.433,3.433,0,1,1,3.433,3.433A3.433,3.433,0,0,1,2319.405,459.106Z" transform="translate(-2313.746 -424.69)" fill="#ced4ea"/>
    <path id="Trazado_359" data-name="Trazado 359" d="M2712.479,686.119a3.432,3.432,0,1,1,3.433,3.432A3.432,3.432,0,0,1,2712.479,686.119Z" transform="translate(-2614.532 -598.403)" fill="#ced4ea"/>
    <path id="Trazado_360" data-name="Trazado 360" d="M2319.405,686.119a3.433,3.433,0,1,1,3.433,3.432A3.433,3.433,0,0,1,2319.405,686.119Z" transform="translate(-2313.746 -598.403)" fill="#ced4ea"/>
    <path id="Trazado_361" data-name="Trazado 361" d="M2513.507,469.55h0a.828.828,0,0,1-.349-1.115l16.563-31.65a.829.829,0,0,1,1.115-.349h0a.828.828,0,0,1,.349,1.115l-16.562,31.65A.828.828,0,0,1,2513.507,469.55Z" transform="translate(-2461.936 -409.898)" fill="#e4819f"/>
    <path id="Trazado_362" data-name="Trazado 362" d="M2515.959,520.1h0a.414.414,0,0,1,.152-.564l28.338-16.328a.415.415,0,0,1,.564.151h0a.415.415,0,0,1-.152.564l-28.338,16.328A.414.414,0,0,1,2515.959,520.1Z" transform="translate(-2464.11 -461.019)" fill="#e4819f"/>
  </g>
  <g id="Grupo_257" data-name="Grupo 257" transform="translate(121.872)">
    <path id="Trazado_383" data-name="Trazado 383" d="M1838.163,327.456a3.432,3.432,0,1,0-3.432,3.433A3.432,3.432,0,0,0,1838.163,327.456Z" transform="translate(-1779.899 -324.023)" fill="#ced4ea"/>
    <path id="Trazado_384" data-name="Trazado 384" d="M1838.163,791.281a3.432,3.432,0,1,0-3.432,3.432A3.433,3.433,0,0,0,1838.163,791.281Z" transform="translate(-1779.899 -678.948)" fill="#ced4ea"/>
    <path id="Trazado_385" data-name="Trazado 385" d="M1955.6,374.6a3.433,3.433,0,1,0-3.433,3.433A3.433,3.433,0,0,0,1955.6,374.6Z" transform="translate(-1924.907 -360.095)" fill="#ced4ea"/>
    <path id="Trazado_386" data-name="Trazado 386" d="M1708.124,374.6a3.432,3.432,0,1,0-3.433,3.433A3.432,3.432,0,0,0,1708.124,374.6Z" transform="translate(-1619.328 -360.095)" fill="#ced4ea"/>
    <ellipse id="Elipse_9" data-name="Elipse 9" cx="3.433" cy="3.433" rx="3.433" ry="3.433" transform="translate(25.506 102.035)" fill="#ced4ea"/>
    <path id="Trazado_387" data-name="Trazado 387" d="M1727.724,762.042a3.433,3.433,0,1,0-3.433,3.432A3.432,3.432,0,0,0,1727.724,762.042Z" transform="translate(-1643.529 -656.574)" fill="#ced4ea"/>
    <path id="Trazado_388" data-name="Trazado 388" d="M2036.639,459.106a3.432,3.432,0,1,0-3.433,3.433A3.432,3.432,0,0,0,2036.639,459.106Z" transform="translate(-2024.974 -424.763)" fill="#ced4ea"/>
    <path id="Trazado_389" data-name="Trazado 389" d="M1643.566,459.106a3.433,3.433,0,1,0-3.433,3.433A3.433,3.433,0,0,0,1643.566,459.106Z" transform="translate(-1539.613 -424.763)" fill="#ced4ea"/>
    <path id="Trazado_390" data-name="Trazado 390" d="M2036.639,686.119a3.432,3.432,0,1,0-3.433,3.432A3.433,3.433,0,0,0,2036.639,686.119Z" transform="translate(-2024.974 -598.477)" fill="#ced4ea"/>
    <ellipse id="Elipse_10" data-name="Elipse 10" cx="3.433" cy="3.433" rx="3.433" ry="3.433" transform="matrix(-1, -0.029, 0.029, -1, 103.851, 91.174)" fill="#ced4ea"/>
    <path id="Trazado_391" data-name="Trazado 391" d="M1614.327,559.869a3.432,3.432,0,1,0-3.433,3.433A3.433,3.433,0,0,0,1614.327,559.869Z" transform="translate(-1503.509 -501.869)" fill="#ced4ea"/>
    <path id="Trazado_392" data-name="Trazado 392" d="M2057.083,559.869a3.433,3.433,0,1,0-3.433,3.433A3.433,3.433,0,0,0,2057.083,559.869Z" transform="translate(-2050.218 -501.869)" fill="#ced4ea"/>
    <path id="Trazado_393" data-name="Trazado 393" d="M1849.984,600.2l-.327-.166a.969.969,0,0,1-.424-1.3l14.67-28.863a.97.97,0,0,1,1.3-.424l.327.166a.97.97,0,0,1,.424,1.3l-14.671,28.863A.969.969,0,0,1,1849.984,600.2Z" transform="translate(-1811.981 -511.742)" fill="#21939e"/>
    <path id="Trazado_394" data-name="Trazado 394" d="M1874.22,441.819h0a.288.288,0,0,0,.1-.395l-23.89-39.443a.288.288,0,0,0-.4-.1h0a.288.288,0,0,0-.1.395l23.89,39.443A.288.288,0,0,0,1874.22,441.819Z" transform="translate(-1820.46 -383.572)" fill="#21939e"/>
  </g>
  <g id="Grupo_260" data-name="Grupo 260" transform="translate(0 68.606)">
    <ellipse id="Elipse_11" data-name="Elipse 11" cx="3.433" cy="3.433" rx="3.433" ry="3.433" transform="translate(51.861 6.684) rotate(-76.802)" fill="#ced4ea"/>
    <g id="Grupo_259" data-name="Grupo 259" transform="translate(0 10.715)">
      <ellipse id="Elipse_12" data-name="Elipse 12" cx="3.433" cy="3.433" rx="3.433" ry="3.433" transform="translate(51.861 104.868) rotate(-76.802)" fill="#ced4ea"/>
      <ellipse id="Elipse_13" data-name="Elipse 13" cx="3.432" cy="3.432" rx="3.432" ry="3.432" transform="translate(79.081 2.604) rotate(-22.29)" fill="#ced4ea"/>
      <ellipse id="Elipse_14" data-name="Elipse 14" cx="3.432" cy="3.432" rx="3.432" ry="3.432" transform="translate(20.977 2.604) rotate(-22.29)" fill="#ced4ea"/>
      <ellipse id="Elipse_15" data-name="Elipse 15" cx="3.432" cy="3.432" rx="3.432" ry="3.432" transform="translate(78.447 92.013)" fill="#ced4ea"/>
      <ellipse id="Elipse_16" data-name="Elipse 16" cx="3.432" cy="3.432" rx="3.432" ry="3.432" transform="translate(26.624 92.013)" fill="#ced4ea"/>
      <path id="Trazado_401" data-name="Trazado 401" d="M664.367,459.106a3.432,3.432,0,1,1,3.432,3.433A3.432,3.432,0,0,1,664.367,459.106Z" transform="translate(-565.214 -434.786)" fill="#ced4ea"/>
      <path id="Trazado_402" data-name="Trazado 402" d="M271.294,459.106a3.432,3.432,0,1,1,3.433,3.433A3.432,3.432,0,0,1,271.294,459.106Z" transform="translate(-264.429 -434.786)" fill="#ced4ea"/>
      <path id="Trazado_403" data-name="Trazado 403" d="M242.054,566.15a3.433,3.433,0,1,1,3.433,3.433A3.433,3.433,0,0,1,242.054,566.15Z" transform="translate(-242.054 -516.697)" fill="#ced4ea"/>
      <ellipse id="Elipse_17" data-name="Elipse 17" cx="3.432" cy="3.432" rx="3.432" ry="3.432" transform="translate(103.778 46.02)" fill="#ced4ea"/>
      <circle id="Elipse_18" data-name="Elipse 18" cx="3.433" cy="3.433" r="3.433" transform="translate(97.866 76.484) rotate(-31.469)" fill="#ced4ea"/>
      <ellipse id="Elipse_19" data-name="Elipse 19" cx="3.433" cy="3.433" rx="3.433" ry="3.433" transform="translate(6.172 80.178) rotate(-76.802)" fill="#ced4ea"/>
      <path id="Trazado_404" data-name="Trazado 404" d="M482.723,469.549h0a.828.828,0,0,0,.349-1.115l-16.563-31.65a.828.828,0,0,0-1.115-.349h0a.828.828,0,0,0-.349,1.115l16.563,31.65A.828.828,0,0,0,482.723,469.549Z" transform="translate(-423.38 -417.106)" fill="#5c77f8"/>
      <path id="Trazado_405" data-name="Trazado 405" d="M496.9,520.1h0a.414.414,0,0,0-.151-.564L468.41,503.2a.414.414,0,0,0-.564.151h0a.414.414,0,0,0,.152.564l28.338,16.328A.414.414,0,0,0,496.9,520.1Z" transform="translate(-437.836 -468.227)" fill="#5c77f8"/>
    </g>
  </g>
  <g id="Grupo_388" data-name="Grupo 388" transform="matrix(-0.966, 0.259, -0.259, -0.966, 248.08, 232.245)">
    <ellipse id="Elipse_11-2" data-name="Elipse 11" cx="3.433" cy="3.433" rx="3.433" ry="3.433" transform="translate(51.861 6.684) rotate(-76.802)" fill="#ced4ea"/>
    <g id="Grupo_259-2" data-name="Grupo 259" transform="translate(0 10.715)">
      <ellipse id="Elipse_12-2" data-name="Elipse 12" cx="3.433" cy="3.433" rx="3.433" ry="3.433" transform="translate(51.861 104.868) rotate(-76.802)" fill="#ced4ea"/>
      <ellipse id="Elipse_13-2" data-name="Elipse 13" cx="3.432" cy="3.432" rx="3.432" ry="3.432" transform="translate(79.081 2.604) rotate(-22.29)" fill="#ced4ea"/>
      <ellipse id="Elipse_14-2" data-name="Elipse 14" cx="3.432" cy="3.432" rx="3.432" ry="3.432" transform="translate(20.977 2.604) rotate(-22.29)" fill="#ced4ea"/>
      <ellipse id="Elipse_15-2" data-name="Elipse 15" cx="3.432" cy="3.432" rx="3.432" ry="3.432" transform="translate(78.447 92.013)" fill="#ced4ea"/>
      <ellipse id="Elipse_16-2" data-name="Elipse 16" cx="3.432" cy="3.432" rx="3.432" ry="3.432" transform="translate(26.624 92.013)" fill="#ced4ea"/>
      <path id="Trazado_401-2" data-name="Trazado 401" d="M0,3.433A3.432,3.432,0,1,1,3.432,6.865,3.432,3.432,0,0,1,0,3.433Z" transform="translate(99.153 20.887)" fill="#ced4ea"/>
      <path id="Trazado_402-2" data-name="Trazado 402" d="M0,3.433A3.432,3.432,0,1,1,3.433,6.865,3.432,3.432,0,0,1,0,3.433Z" transform="translate(6.865 20.887)" fill="#ced4ea"/>
      <path id="Trazado_403-2" data-name="Trazado 403" d="M0,3.433A3.433,3.433,0,1,1,3.433,6.865,3.433,3.433,0,0,1,0,3.433Z" transform="translate(0 46.02)" fill="#ced4ea"/>
      <ellipse id="Elipse_17-2" data-name="Elipse 17" cx="3.432" cy="3.432" rx="3.432" ry="3.432" transform="translate(103.778 46.02)" fill="#ced4ea"/>
      <ellipse id="Elipse_18-2" data-name="Elipse 18" cx="3.433" cy="3.433" rx="3.433" ry="3.433" transform="translate(97.866 76.484) rotate(-31.469)" fill="#ced4ea"/>
      <ellipse id="Elipse_19-2" data-name="Elipse 19" cx="3.433" cy="3.433" rx="3.433" ry="3.433" transform="translate(6.172 80.178) rotate(-76.802)" fill="#ced4ea"/>
      <path id="Trazado_404-2" data-name="Trazado 404" d="M17.771,33.207h0a.828.828,0,0,0,.349-1.115L1.557.442A.828.828,0,0,0,.442.094h0A.828.828,0,0,0,.094,1.208l16.563,31.65A.828.828,0,0,0,17.771,33.207Z" transform="translate(41.572 19.236)" fill="#f15b32"/>
      <path id="Trazado_405-2" data-name="Trazado 405" d="M29.108,16.947h0a.414.414,0,0,0-.151-.564L.619.055A.414.414,0,0,0,.055.206h0A.414.414,0,0,0,.206.77L28.544,17.1A.414.414,0,0,0,29.108,16.947Z" transform="translate(29.956 34.921)" fill="#f15b32"/>
    </g>
  </g>
</svg>
